# xmcd
#
# Track frame offsets:
#	182
#	31917
#	66512
#	72670
#	92177
#
# Disc length: 2037 seconds
#
# Revision: 2
# Processed by: cddbd v1.4PL0 Copyright (c) Steve Scherf et al.
# Submitted via: audiograbber 1.82.02
#
DISCID=4807f305
DTITLE=Frank Zappa - Orchestral Favorites
DYEAR=1979
DGENRE=
TTITLE0=Strictly Genteel
TTITLE1=Pedro's Dowry
TTITLE2=Naval Aviation In Art?
TTITLE3=Duke of Prunes
TTITLE4=Bogus Pomp
EXTD=
EXTT0=Segue
EXTT1=Segue
EXTT2=Segue
EXTT3=
EXTT4=
PLAYORDER=
